Coordinates
version=1
nRows=8
nColumns=46
inDegrees=yes

Units are S.I. units (second, meters, Newtons, ...)
Angles are in degrees.

endheader
time	pelvis_tilt	pelvis_list	pelvis_rotation	pelvis_tx	pelvis_ty	pelvis_tz	bb_angle	bb_tx	bb_ty	bb_tz	hip_flexion_r	hip_adduction_r	hip_rotation_r	knee_angle_r	knee_angle_r_beta	ankle_angle_r	subtalar_angle_r	mtp_angle_r	crank_angle_r	hip_flexion_l	hip_adduction_l	hip_rotation_l	knee_angle_l	knee_angle_l_beta	ankle_angle_l	subtalar_angle_l	mtp_angle_l	crank_angle_l	lumbar_extension	lumbar_bending	lumbar_rotation	arm_flex_r	arm_add_r	arm_rot_r	elbow_flex_r	pro_sup_r	wrist_flex_r	wrist_dev_r	arm_flex_l	arm_add_l	arm_rot_l	elbow_flex_l	pro_sup_l	wrist_flex_l	wrist_dev_l
      2.50500000	     -6.07245869	     -3.14965956	     -0.48663383	      0.08721134	      1.18236913	     -0.23601753	      0.00000000	      0.50000000	      0.00000000	      0.25000000	     67.03253293	      1.93698565	      5.29255110	    103.81406216	      1.81189719	    -22.48431907	     -6.72813195	      0.00000000	      0.00000000	     35.58188624	     -7.36114534	     -1.12427842	     34.55866934	      0.60316257	      3.80190123	      0.34089998	      0.00000000	      0.00000000	    -63.70894026	      5.09974873	      4.78883826	     89.57058585	     -7.27296573	     39.02531773	     35.25659275	     34.86282064	      0.00000000	      0.00000000	     89.58534123	     -9.86570885	     47.31931877	     33.64494905	     30.15825195	      0.00000000	      0.00000000
      2.51000000	     -5.73525772	     -3.63235123	     -0.34674700	      0.08833443	      1.18327978	     -0.23697611	      0.00000000	      0.50000000	      0.00000000	      0.25000000	     67.46421640	      2.09264002	      4.89927226	    104.69342148	      1.82724491	    -21.54056082	     -6.69844033	      0.00000000	      0.00000000	     34.43913428	     -7.99524679	     -1.66303742	     33.62127773	      0.58680200	      2.49886910	      1.76252371	      0.00000000	      0.00000000	    -63.86966362	      5.73103864	      5.04957663	     89.56754937	     -6.93776972	     39.21783866	     34.92821171	     34.76748996	      0.00000000	      0.00000000	     89.55822545	     -9.81678427	     47.59777595	     33.00353638	     30.04121303	      0.00000000	      0.00000000
      2.51500000	     -5.11992597	     -4.07635369	     -0.45122685	      0.08972198	      1.18440170	     -0.23749548	      0.00000000	      0.50000000	      0.00000000	      0.25000000	     67.58995285	      2.48551641	      4.69152108	    105.54106146	      1.84203902	    -20.49053314	     -6.19451439	      0.00000000	      0.00000000	     32.99258930	     -8.88193707	     -2.83172804	     32.94008380	      0.57491292	      2.05940036	      4.09298289	      0.00000000	      0.00000000	    -64.02967923	      5.96175093	      5.44017215	     89.58754479	     -6.36622465	     40.18078424	     32.93296894	     33.91157138	      0.00000000	      0.00000000	     89.61443199	     -9.16898122	     49.88398814	     30.16427962	     29.48672241	      0.00000000	      0.00000000
      2.52000000	     -4.97796390	     -4.49653792	     -0.29551527	      0.09050154	      1.18488731	     -0.23845022	      0.00000000	      0.50000000	      0.00000000	      0.25000000	     68.23995887	      2.62172780	      4.31985566	    106.26382998	      1.85465371	    -19.97038815	     -6.17560173	      0.00000000	      0.00000000	     32.15758733	     -9.37600388	     -3.19804311	     32.19923769	      0.56198271	      0.81355153	      4.96611296	      0.00000000	      0.00000000	    -64.04695230	      6.59720369	      5.67624973	     89.58060803	     -6.09288245	     40.30517578	     32.90026846	     33.85833769	      0.00000000	      0.00000000	     89.58233642	     -9.24420688	     50.00661606	     29.89531615	     29.42359331	      0.00000000	      0.00000000
      2.52500000	     -4.53281884	     -4.83526785	     -0.31338485	      0.09145711	      1.18578336	     -0.23907375	      0.00000000	      0.50000000	      0.00000000	      0.25000000	     68.54175037	      2.86877175	      4.12124898	    106.95304419	      1.86668277	    -19.01628761	     -6.18053643	      0.00000000	      0.00000000	     30.95238127	     -9.98647973	     -4.06156709	     31.57409731	      0.55107196	      0.08393423	      6.48209407	      0.00000000	      0.00000000	    -64.22873284	      7.03402727	      5.75368023	     89.61050238	     -5.37583834	     40.99180557	     31.77965272	     33.16470418	      0.00000000	      0.00000000	     89.59859395	     -9.23417208	     51.55000315	     28.27486922	     29.06757340	      0.00000000	      0.00000000
      2.53000000	     -4.20040310	     -5.11927557	     -0.18307249	      0.09218078	      1.18649865	     -0.23998082	      0.00000000	      0.50000000	      0.00000000	      0.25000000	     68.98739612	      2.90194725	      3.95706939	    107.58711165	      1.87774933	    -18.09446364	     -6.16211812	      0.00000000	      0.00000000	     29.93389733	    -10.35802526	     -4.54906430	     30.98671584	      0.54082022	     -0.88811030	      7.27392718	      0.00000000	      0.00000000	    -64.43587195	      7.60254968	      5.74572594	     89.62083547	     -4.93929211	     41.31215715	     31.62592586	     32.88204173	      0.00000000	      0.00000000	     89.59211335	     -9.43267532	     52.26438035	     27.60190886	     28.91597013	      0.00000000	      0.00000000
      2.53500000	     -4.10277997	     -5.48152981	     -0.09756908	      0.09269944	      1.18694157	     -0.24074195	      0.00000000	      0.50000000	      0.00000000	      0.25000000	     69.63835970	      3.03183979	      3.68958902	    108.07684820	      1.88629685	    -17.43500078	     -6.06867897	      0.00000000	      0.00000000	     29.25689729	    -10.78960969	     -4.89583055	     30.53166650	      0.53287811	     -1.98389546	      7.69922875	      0.00000000	      0.00000000	    -64.46887594	      8.11818714	      5.82426586	     89.62820667	     -4.59854582	     41.46338918	     31.54250514	     32.76367933	      0.00000000	      0.00000000	     89.57535306	     -9.60588112	     52.55599253	     27.20850604	     28.83322478	      0.00000000	      0.00000000
      2.54000000	     -3.85377306	     -5.71511855	     -0.10865567	      0.09316747	      1.18762992	     -0.24144845	      0.00000000	      0.50000000	      0.00000000	      0.25000000	     70.11735818	      3.22895885	      3.62834803	    108.51528486	      1.89394901	    -16.58693488	     -5.90656170	      0.00000000	      0.00000000	     28.37253085	    -11.12953057	     -5.35929589	     30.11252797	      0.52556276	     -2.88599317	      8.08820287	      0.00000000	      0.00000000	    -64.62422633	      8.55994847	      5.69545509	     89.64874714	     -3.95816025	     41.83279572	     31.24586880	     32.47448340	      0.00000000	      0.00000000	     89.58321410	     -9.97107873	     53.32405340	     26.37171176	     28.67411700	      0.00000000	      0.00000000
